<mxfile host="Electron" modified="2024-04-06T02:40:33.509Z" agent="Mozilla/5.0 (Windows NT 10.0; Win64; x64) AppleWebKit/537.36 (KHTML, like Gecko) draw.io/24.1.0 Chrome/120.0.6099.109 Electron/28.1.0 Safari/537.36" etag="IUR_QVIxlQOUV5P50G29" version="24.1.0" type="device">
  <diagram name="Page-1" id="_ND4ITzbnkIOsHbf0bwX">
    <mxGraphModel dx="989" dy="588" grid="1" gridSize="10" guides="1" tooltips="1" connect="1" arrows="1" fold="1" page="1" pageScale="1" pageWidth="1169" pageHeight="827" math="0" shadow="0">
      <root>
        <mxCell id="0" />
        <mxCell id="1" parent="0" />
        <mxCell id="F2zV74ljajzBoqDja7oi-1" style="edgeStyle=orthogonalEdgeStyle;rounded=0;orthogonalLoop=1;jettySize=auto;html=1;entryX=0;entryY=0.5;entryDx=0;entryDy=0;strokeWidth=2;strokeColor=#FF0000;" edge="1" parent="1" source="3OgiTbT7xKRAJT_PE359-1" target="3OgiTbT7xKRAJT_PE359-2">
          <mxGeometry relative="1" as="geometry" />
        </mxCell>
        <mxCell id="3OgiTbT7xKRAJT_PE359-1" value="Solar&lt;div&gt;&lt;font style=&quot;font-size: 8px;&quot;&gt;(12V/3W)&lt;/font&gt;&lt;/div&gt;" style="shape=parallelogram;perimeter=parallelogramPerimeter;whiteSpace=wrap;html=1;fixedSize=1;" parent="1" vertex="1">
          <mxGeometry x="40" y="240.00000000000003" width="100" height="40" as="geometry" />
        </mxCell>
        <mxCell id="3OgiTbT7xKRAJT_PE359-2" value="BUCK 5V&lt;div&gt;&lt;font style=&quot;font-size: 8px;&quot;&gt;(MT1470)&lt;/font&gt;&lt;/div&gt;" style="rounded=0;whiteSpace=wrap;html=1;" parent="1" vertex="1">
          <mxGeometry x="180" y="240.00000000000003" width="80" height="40" as="geometry" />
        </mxCell>
        <mxCell id="3OgiTbT7xKRAJT_PE359-20" style="edgeStyle=orthogonalEdgeStyle;rounded=0;orthogonalLoop=1;jettySize=auto;html=1;strokeColor=#FF0000;align=center;verticalAlign=middle;fontFamily=Helvetica;fontSize=11;fontColor=default;labelBackgroundColor=default;endArrow=oval;endFill=1;strokeWidth=2;" parent="1" source="3OgiTbT7xKRAJT_PE359-4" edge="1">
          <mxGeometry relative="1" as="geometry">
            <mxPoint x="440" y="140.21" as="targetPoint" />
          </mxGeometry>
        </mxCell>
        <mxCell id="3OgiTbT7xKRAJT_PE359-32" style="edgeStyle=orthogonalEdgeStyle;rounded=0;orthogonalLoop=1;jettySize=auto;html=1;entryX=0;entryY=0.75;entryDx=0;entryDy=0;strokeColor=#FF8000;align=center;verticalAlign=middle;fontFamily=Helvetica;fontSize=11;fontColor=default;labelBackgroundColor=default;endArrow=classic;endFill=1;strokeWidth=2;" parent="1" source="3OgiTbT7xKRAJT_PE359-4" target="3OgiTbT7xKRAJT_PE359-28" edge="1">
          <mxGeometry relative="1" as="geometry" />
        </mxCell>
        <mxCell id="3OgiTbT7xKRAJT_PE359-4" value="LDO 3.3V&lt;div&gt;&lt;font style=&quot;font-size: 8px;&quot;&gt;(MCP1700)&lt;/font&gt;&lt;/div&gt;" style="rounded=0;whiteSpace=wrap;html=1;" parent="1" vertex="1">
          <mxGeometry x="500" y="280.21" width="60" height="40" as="geometry" />
        </mxCell>
        <mxCell id="F2zV74ljajzBoqDja7oi-5" style="edgeStyle=orthogonalEdgeStyle;rounded=0;orthogonalLoop=1;jettySize=auto;html=1;entryX=0;entryY=0.5;entryDx=0;entryDy=0;strokeWidth=2;strokeColor=#FF0000;" edge="1" parent="1" source="3OgiTbT7xKRAJT_PE359-5" target="3OgiTbT7xKRAJT_PE359-13">
          <mxGeometry relative="1" as="geometry">
            <Array as="points">
              <mxPoint x="220" y="140.21" />
            </Array>
          </mxGeometry>
        </mxCell>
        <mxCell id="3OgiTbT7xKRAJT_PE359-5" value="" style="pointerEvents=1;fillColor=strokeColor;verticalLabelPosition=bottom;shadow=0;dashed=0;align=center;html=1;verticalAlign=top;shape=mxgraph.electrical.diodes.diode;rotation=-90;" parent="1" vertex="1">
          <mxGeometry x="200" y="170.21" width="40" height="20" as="geometry" />
        </mxCell>
        <mxCell id="3OgiTbT7xKRAJT_PE359-22" style="edgeStyle=orthogonalEdgeStyle;rounded=0;orthogonalLoop=1;jettySize=auto;html=1;strokeColor=#FF8000;align=center;verticalAlign=middle;fontFamily=Helvetica;fontSize=11;fontColor=default;labelBackgroundColor=default;endArrow=classic;endFill=1;strokeWidth=2;" parent="1" source="3OgiTbT7xKRAJT_PE359-11" target="3OgiTbT7xKRAJT_PE359-21" edge="1">
          <mxGeometry relative="1" as="geometry" />
        </mxCell>
        <mxCell id="3OgiTbT7xKRAJT_PE359-11" value="BUCK 3.8V&lt;div&gt;&lt;font style=&quot;font-size: 8px;&quot;&gt;(MT1470)&lt;/font&gt;&lt;/div&gt;" style="rounded=0;whiteSpace=wrap;html=1;" parent="1" vertex="1">
          <mxGeometry x="490" y="120.21000000000001" width="80" height="40" as="geometry" />
        </mxCell>
        <mxCell id="3OgiTbT7xKRAJT_PE359-18" style="edgeStyle=orthogonalEdgeStyle;rounded=0;orthogonalLoop=1;jettySize=auto;html=1;entryX=0;entryY=0.5;entryDx=0;entryDy=0;strokeColor=#FF0000;align=center;verticalAlign=middle;fontFamily=Helvetica;fontSize=11;fontColor=default;labelBackgroundColor=default;endArrow=classic;endFill=1;strokeWidth=2;" parent="1" source="3OgiTbT7xKRAJT_PE359-13" target="3OgiTbT7xKRAJT_PE359-11" edge="1">
          <mxGeometry relative="1" as="geometry" />
        </mxCell>
        <mxCell id="3OgiTbT7xKRAJT_PE359-13" value="CHARGER&lt;div&gt;&amp;amp;PWR SWITCHER&lt;/div&gt;&lt;div&gt;&amp;nbsp;&lt;font style=&quot;font-size: 8px;&quot;&gt;(MCP73871)&lt;/font&gt;&lt;/div&gt;" style="rounded=0;whiteSpace=wrap;html=1;" parent="1" vertex="1">
          <mxGeometry x="280" y="120.21000000000001" width="120" height="40" as="geometry" />
        </mxCell>
        <mxCell id="F2zV74ljajzBoqDja7oi-4" style="edgeStyle=orthogonalEdgeStyle;rounded=0;orthogonalLoop=1;jettySize=auto;html=1;entryX=0.5;entryY=1;entryDx=0;entryDy=0;startArrow=classic;startFill=1;strokeColor=#FF0000;" edge="1" parent="1" source="3OgiTbT7xKRAJT_PE359-15" target="3OgiTbT7xKRAJT_PE359-13">
          <mxGeometry relative="1" as="geometry" />
        </mxCell>
        <mxCell id="3OgiTbT7xKRAJT_PE359-15" value="Li-Ion 3.7V&lt;div&gt;2x 3.4Ah&lt;/div&gt;&lt;div&gt;&lt;font style=&quot;font-size: 8px;&quot;&gt;(NCR18650B)&lt;/font&gt;&lt;/div&gt;" style="html=1;verticalLabelPosition=bottom;align=center;labelBackgroundColor=#ffffff;verticalAlign=top;strokeWidth=1;strokeColor=#000000;shadow=0;dashed=0;shape=mxgraph.ios7.icons.battery;fontFamily=Helvetica;fontSize=11;fontColor=default;rotation=0;direction=north;" parent="1" vertex="1">
          <mxGeometry x="320" y="200.21" width="40" height="80" as="geometry" />
        </mxCell>
        <mxCell id="3OgiTbT7xKRAJT_PE359-21" value="NB MODULE&lt;div&gt;&lt;font style=&quot;font-size: 8px;&quot;&gt;(ME310G1)&lt;/font&gt;&lt;/div&gt;" style="rounded=1;whiteSpace=wrap;html=1;fontFamily=Helvetica;fontSize=11;fontColor=default;labelBackgroundColor=default;" parent="1" vertex="1">
          <mxGeometry x="680" y="100" width="120" height="80" as="geometry" />
        </mxCell>
        <mxCell id="3OgiTbT7xKRAJT_PE359-24" style="edgeStyle=orthogonalEdgeStyle;rounded=0;orthogonalLoop=1;jettySize=auto;html=1;entryX=0.25;entryY=0;entryDx=0;entryDy=0;strokeColor=default;align=center;verticalAlign=middle;fontFamily=Helvetica;fontSize=11;fontColor=default;labelBackgroundColor=default;endArrow=none;endFill=0;" parent="1" source="3OgiTbT7xKRAJT_PE359-23" target="3OgiTbT7xKRAJT_PE359-21" edge="1">
          <mxGeometry relative="1" as="geometry" />
        </mxCell>
        <mxCell id="3OgiTbT7xKRAJT_PE359-23" value="GPS&lt;div&gt;&lt;font style=&quot;font-size: 8px;&quot;&gt;(AHGG.202)&lt;/font&gt;&lt;/div&gt;" style="verticalLabelPosition=top;shadow=0;dashed=0;align=center;html=1;verticalAlign=bottom;shape=mxgraph.electrical.radio.aerial_-_antenna_1;fontFamily=Helvetica;fontSize=11;fontColor=default;labelBackgroundColor=default;labelPosition=center;" parent="1" vertex="1">
          <mxGeometry x="700" y="60" width="20" height="20" as="geometry" />
        </mxCell>
        <mxCell id="3OgiTbT7xKRAJT_PE359-26" style="edgeStyle=orthogonalEdgeStyle;rounded=0;orthogonalLoop=1;jettySize=auto;html=1;entryX=0.75;entryY=0;entryDx=0;entryDy=0;strokeColor=default;align=center;verticalAlign=middle;fontFamily=Helvetica;fontSize=11;fontColor=default;labelBackgroundColor=default;endArrow=none;endFill=0;" parent="1" source="3OgiTbT7xKRAJT_PE359-25" target="3OgiTbT7xKRAJT_PE359-21" edge="1">
          <mxGeometry relative="1" as="geometry" />
        </mxCell>
        <mxCell id="3OgiTbT7xKRAJT_PE359-25" value="CELL&lt;br&gt;&lt;font style=&quot;font-size: 8px;&quot;&gt;(AH3G.303)&lt;/font&gt;" style="verticalLabelPosition=top;shadow=0;dashed=0;align=center;html=1;verticalAlign=bottom;shape=mxgraph.electrical.radio.aerial_-_antenna_1;fontFamily=Helvetica;fontSize=11;fontColor=default;labelBackgroundColor=default;labelPosition=center;" parent="1" vertex="1">
          <mxGeometry x="760" y="60" width="20" height="20" as="geometry" />
        </mxCell>
        <mxCell id="3OgiTbT7xKRAJT_PE359-29" style="edgeStyle=orthogonalEdgeStyle;rounded=0;orthogonalLoop=1;jettySize=auto;html=1;entryX=0.25;entryY=1;entryDx=0;entryDy=0;strokeColor=default;align=center;verticalAlign=middle;fontFamily=Helvetica;fontSize=11;fontColor=default;labelBackgroundColor=default;endArrow=classic;endFill=1;exitX=0.25;exitY=0;exitDx=0;exitDy=0;startArrow=classic;startFill=1;" parent="1" source="3OgiTbT7xKRAJT_PE359-28" target="3OgiTbT7xKRAJT_PE359-21" edge="1">
          <mxGeometry relative="1" as="geometry" />
        </mxCell>
        <mxCell id="3OgiTbT7xKRAJT_PE359-30" style="edgeStyle=orthogonalEdgeStyle;rounded=0;orthogonalLoop=1;jettySize=auto;html=1;exitX=0;exitY=0.25;exitDx=0;exitDy=0;entryX=0.5;entryY=1;entryDx=0;entryDy=0;strokeColor=default;align=center;verticalAlign=middle;fontFamily=Helvetica;fontSize=11;fontColor=default;labelBackgroundColor=default;endArrow=none;endFill=0;" parent="1" source="3OgiTbT7xKRAJT_PE359-28" target="3OgiTbT7xKRAJT_PE359-11" edge="1">
          <mxGeometry relative="1" as="geometry">
            <Array as="points">
              <mxPoint x="530" y="260.21000000000004" />
            </Array>
          </mxGeometry>
        </mxCell>
        <mxCell id="3OgiTbT7xKRAJT_PE359-31" style="edgeStyle=orthogonalEdgeStyle;rounded=0;orthogonalLoop=1;jettySize=auto;html=1;exitX=0.75;exitY=0;exitDx=0;exitDy=0;entryX=0.75;entryY=1;entryDx=0;entryDy=0;strokeColor=default;align=center;verticalAlign=middle;fontFamily=Helvetica;fontSize=11;fontColor=default;labelBackgroundColor=default;endArrow=classic;endFill=1;startArrow=classic;startFill=1;" parent="1" source="3OgiTbT7xKRAJT_PE359-28" target="3OgiTbT7xKRAJT_PE359-21" edge="1">
          <mxGeometry relative="1" as="geometry" />
        </mxCell>
        <mxCell id="F2zV74ljajzBoqDja7oi-19" style="edgeStyle=orthogonalEdgeStyle;rounded=0;orthogonalLoop=1;jettySize=auto;html=1;exitX=0.75;exitY=1;exitDx=0;exitDy=0;entryX=0;entryY=0.5;entryDx=0;entryDy=0;" edge="1" parent="1" source="3OgiTbT7xKRAJT_PE359-28" target="F2zV74ljajzBoqDja7oi-18">
          <mxGeometry relative="1" as="geometry">
            <Array as="points">
              <mxPoint x="770" y="380.21" />
            </Array>
          </mxGeometry>
        </mxCell>
        <mxCell id="F2zV74ljajzBoqDja7oi-23" style="edgeStyle=orthogonalEdgeStyle;rounded=0;orthogonalLoop=1;jettySize=auto;html=1;exitX=1;exitY=0.75;exitDx=0;exitDy=0;entryX=0.5;entryY=0;entryDx=0;entryDy=0;" edge="1" parent="1" source="3OgiTbT7xKRAJT_PE359-28" target="F2zV74ljajzBoqDja7oi-20">
          <mxGeometry relative="1" as="geometry" />
        </mxCell>
        <mxCell id="F2zV74ljajzBoqDja7oi-25" style="edgeStyle=orthogonalEdgeStyle;rounded=0;orthogonalLoop=1;jettySize=auto;html=1;exitX=1;exitY=0.25;exitDx=0;exitDy=0;entryX=0;entryY=0.5;entryDx=0;entryDy=0;" edge="1" parent="1" source="3OgiTbT7xKRAJT_PE359-28" target="F2zV74ljajzBoqDja7oi-14">
          <mxGeometry relative="1" as="geometry">
            <Array as="points">
              <mxPoint x="960" y="260" />
              <mxPoint x="960" y="200" />
            </Array>
          </mxGeometry>
        </mxCell>
        <mxCell id="F2zV74ljajzBoqDja7oi-28" style="edgeStyle=orthogonalEdgeStyle;rounded=0;orthogonalLoop=1;jettySize=auto;html=1;strokeWidth=1;" edge="1" parent="1" target="3OgiTbT7xKRAJT_PE359-28">
          <mxGeometry relative="1" as="geometry">
            <mxPoint x="940" y="280.21" as="sourcePoint" />
          </mxGeometry>
        </mxCell>
        <mxCell id="3OgiTbT7xKRAJT_PE359-28" value="MCU&lt;div&gt;&lt;font style=&quot;font-size: 8px;&quot;&gt;(PIC32MM0256GPM048)&lt;/font&gt;&lt;/div&gt;" style="rounded=1;whiteSpace=wrap;html=1;fontFamily=Helvetica;fontSize=11;fontColor=default;labelBackgroundColor=default;" parent="1" vertex="1">
          <mxGeometry x="680" y="240.21" width="120" height="80" as="geometry" />
        </mxCell>
        <mxCell id="3OgiTbT7xKRAJT_PE359-37" style="edgeStyle=orthogonalEdgeStyle;rounded=0;orthogonalLoop=1;jettySize=auto;html=1;entryX=0.25;entryY=1;entryDx=0;entryDy=0;strokeColor=default;align=center;verticalAlign=middle;fontFamily=Helvetica;fontSize=11;fontColor=default;labelBackgroundColor=default;endArrow=classic;endFill=1;strokeWidth=1;startArrow=classic;startFill=1;" parent="1" source="3OgiTbT7xKRAJT_PE359-36" target="3OgiTbT7xKRAJT_PE359-28" edge="1">
          <mxGeometry relative="1" as="geometry">
            <Array as="points">
              <mxPoint x="710" y="380.21" />
            </Array>
          </mxGeometry>
        </mxCell>
        <mxCell id="3OgiTbT7xKRAJT_PE359-36" value="Buttons &amp;amp;&lt;div&gt;Indicator&lt;/div&gt;" style="rounded=1;whiteSpace=wrap;html=1;fontFamily=Helvetica;fontSize=11;fontColor=default;labelBackgroundColor=default;" parent="1" vertex="1">
          <mxGeometry x="600" y="360" width="80" height="40" as="geometry" />
        </mxCell>
        <mxCell id="YIj4oD_qDjWHOP-zJBgj-2" value="5V" style="text;html=1;align=center;verticalAlign=middle;whiteSpace=wrap;rounded=0;" parent="1" vertex="1">
          <mxGeometry x="240" y="120.21000000000001" width="40" height="20" as="geometry" />
        </mxCell>
        <mxCell id="YIj4oD_qDjWHOP-zJBgj-3" value="VBAT/5V" style="text;html=1;align=center;verticalAlign=middle;whiteSpace=wrap;rounded=0;" parent="1" vertex="1">
          <mxGeometry x="410" y="120.21000000000001" width="60" height="20" as="geometry" />
        </mxCell>
        <mxCell id="YIj4oD_qDjWHOP-zJBgj-4" value="VBAT" style="text;html=1;align=center;verticalAlign=middle;whiteSpace=wrap;rounded=0;" parent="1" vertex="1">
          <mxGeometry x="300" y="170.21" width="40" height="20" as="geometry" />
        </mxCell>
        <mxCell id="YIj4oD_qDjWHOP-zJBgj-5" value="3V3" style="text;html=1;align=center;verticalAlign=middle;whiteSpace=wrap;rounded=0;" parent="1" vertex="1">
          <mxGeometry x="600" y="280" width="40" height="19.79" as="geometry" />
        </mxCell>
        <mxCell id="YIj4oD_qDjWHOP-zJBgj-6" value="EN" style="text;html=1;align=center;verticalAlign=middle;whiteSpace=wrap;rounded=0;" parent="1" vertex="1">
          <mxGeometry x="530" y="160.20999999999998" width="40" height="19.79" as="geometry" />
        </mxCell>
        <mxCell id="YIj4oD_qDjWHOP-zJBgj-7" value="GPIO" style="text;html=1;align=center;verticalAlign=middle;whiteSpace=wrap;rounded=0;" parent="1" vertex="1">
          <mxGeometry x="670" y="200.21" width="40" height="20" as="geometry" />
        </mxCell>
        <mxCell id="YIj4oD_qDjWHOP-zJBgj-8" value="UART" style="text;html=1;align=center;verticalAlign=middle;whiteSpace=wrap;rounded=0;" parent="1" vertex="1">
          <mxGeometry x="770" y="200.21" width="40" height="20" as="geometry" />
        </mxCell>
        <mxCell id="YIj4oD_qDjWHOP-zJBgj-9" value="SPI" style="text;html=1;align=center;verticalAlign=middle;whiteSpace=wrap;rounded=0;" parent="1" vertex="1">
          <mxGeometry x="770" y="330" width="40" height="20" as="geometry" />
        </mxCell>
        <mxCell id="YIj4oD_qDjWHOP-zJBgj-10" value="GPIO" style="text;html=1;align=center;verticalAlign=middle;whiteSpace=wrap;rounded=0;" parent="1" vertex="1">
          <mxGeometry x="670" y="330" width="40" height="20" as="geometry" />
        </mxCell>
        <mxCell id="F2zV74ljajzBoqDja7oi-6" style="edgeStyle=orthogonalEdgeStyle;rounded=0;orthogonalLoop=1;jettySize=auto;html=1;endArrow=oval;endFill=1;strokeWidth=2;strokeColor=#FF0000;" edge="1" parent="1" source="F2zV74ljajzBoqDja7oi-3">
          <mxGeometry relative="1" as="geometry">
            <mxPoint x="220" y="140.21" as="targetPoint" />
          </mxGeometry>
        </mxCell>
        <mxCell id="F2zV74ljajzBoqDja7oi-10" style="edgeStyle=orthogonalEdgeStyle;rounded=0;orthogonalLoop=1;jettySize=auto;html=1;exitX=0;exitY=0.5;exitDx=0;exitDy=0;exitPerimeter=0;entryX=1;entryY=0.5;entryDx=0;entryDy=0;endArrow=none;endFill=0;strokeWidth=2;strokeColor=#FF0000;" edge="1" parent="1" source="F2zV74ljajzBoqDja7oi-3" target="F2zV74ljajzBoqDja7oi-9">
          <mxGeometry relative="1" as="geometry" />
        </mxCell>
        <mxCell id="F2zV74ljajzBoqDja7oi-3" value="" style="pointerEvents=1;fillColor=strokeColor;verticalLabelPosition=bottom;shadow=0;dashed=0;align=center;html=1;verticalAlign=top;shape=mxgraph.electrical.diodes.diode;" vertex="1" parent="1">
          <mxGeometry x="160" y="130.21" width="40" height="20" as="geometry" />
        </mxCell>
        <mxCell id="F2zV74ljajzBoqDja7oi-9" value="USB&lt;div&gt;&lt;font style=&quot;font-size: 8px;&quot;&gt;(Type C)&lt;/font&gt;&lt;/div&gt;" style="shape=parallelogram;perimeter=parallelogramPerimeter;whiteSpace=wrap;html=1;fixedSize=1;" vertex="1" parent="1">
          <mxGeometry x="40" y="120.21000000000001" width="100" height="40" as="geometry" />
        </mxCell>
        <mxCell id="F2zV74ljajzBoqDja7oi-11" style="edgeStyle=orthogonalEdgeStyle;rounded=0;orthogonalLoop=1;jettySize=auto;html=1;entryX=0;entryY=0.5;entryDx=0;entryDy=0;entryPerimeter=0;endArrow=none;endFill=0;strokeWidth=2;strokeColor=#FF0000;" edge="1" parent="1" source="3OgiTbT7xKRAJT_PE359-2" target="3OgiTbT7xKRAJT_PE359-5">
          <mxGeometry relative="1" as="geometry" />
        </mxCell>
        <mxCell id="F2zV74ljajzBoqDja7oi-29" style="edgeStyle=orthogonalEdgeStyle;rounded=0;orthogonalLoop=1;jettySize=auto;html=1;endArrow=oval;endFill=1;" edge="1" parent="1" source="F2zV74ljajzBoqDja7oi-13">
          <mxGeometry relative="1" as="geometry">
            <mxPoint x="940" y="280.21" as="targetPoint" />
            <Array as="points">
              <mxPoint x="940" y="340.21" />
              <mxPoint x="940" y="280.21" />
            </Array>
          </mxGeometry>
        </mxCell>
        <mxCell id="F2zV74ljajzBoqDja7oi-13" value="Dust Sensor&lt;div&gt;&lt;font style=&quot;font-size: 8px;&quot;&gt;(GP2Y1014AU)&lt;/font&gt;&lt;/div&gt;" style="rounded=1;whiteSpace=wrap;html=1;fontFamily=Helvetica;fontSize=11;fontColor=default;labelBackgroundColor=default;" vertex="1" parent="1">
          <mxGeometry x="1000" y="320" width="120" height="40" as="geometry" />
        </mxCell>
        <mxCell id="F2zV74ljajzBoqDja7oi-14" value="Wind Direction Sensor&lt;div&gt;&lt;font style=&quot;font-size: 8px;&quot;&gt;(AS5600)&lt;/font&gt;&lt;/div&gt;" style="rounded=1;whiteSpace=wrap;html=1;fontFamily=Helvetica;fontSize=11;fontColor=default;labelBackgroundColor=default;" vertex="1" parent="1">
          <mxGeometry x="1000" y="180.21" width="120" height="40" as="geometry" />
        </mxCell>
        <mxCell id="F2zV74ljajzBoqDja7oi-30" style="edgeStyle=orthogonalEdgeStyle;rounded=0;orthogonalLoop=1;jettySize=auto;html=1;endArrow=oval;endFill=1;" edge="1" parent="1" source="F2zV74ljajzBoqDja7oi-15">
          <mxGeometry relative="1" as="geometry">
            <mxPoint x="940" y="160" as="targetPoint" />
          </mxGeometry>
        </mxCell>
        <mxCell id="F2zV74ljajzBoqDja7oi-15" value="Wind Speed Sensor&lt;div&gt;&lt;font style=&quot;font-size: 8px;&quot;&gt;(MK20/2)&lt;/font&gt;&lt;/div&gt;" style="rounded=1;whiteSpace=wrap;html=1;fontFamily=Helvetica;fontSize=11;fontColor=default;labelBackgroundColor=default;" vertex="1" parent="1">
          <mxGeometry x="1000" y="140.42000000000002" width="120" height="40" as="geometry" />
        </mxCell>
        <mxCell id="F2zV74ljajzBoqDja7oi-26" style="edgeStyle=orthogonalEdgeStyle;rounded=0;orthogonalLoop=1;jettySize=auto;html=1;endArrow=oval;endFill=1;startArrow=classic;startFill=1;exitX=0;exitY=0.5;exitDx=0;exitDy=0;" edge="1" parent="1" source="F2zV74ljajzBoqDja7oi-16">
          <mxGeometry relative="1" as="geometry">
            <mxPoint x="960" y="260.21000000000004" as="targetPoint" />
            <Array as="points">
              <mxPoint x="960" y="300" />
            </Array>
          </mxGeometry>
        </mxCell>
        <mxCell id="F2zV74ljajzBoqDja7oi-16" value="&lt;div&gt;Temperature&lt;/div&gt;&lt;div&gt;&amp;amp; Humidity Sensor&lt;/div&gt;&lt;div&gt;&lt;font style=&quot;font-size: 8px;&quot;&gt;(SHT40)&lt;/font&gt;&lt;/div&gt;" style="rounded=1;whiteSpace=wrap;html=1;fontFamily=Helvetica;fontSize=11;fontColor=default;labelBackgroundColor=default;fillColor=default;" vertex="1" parent="1">
          <mxGeometry x="1000" y="280" width="120" height="40.21" as="geometry" />
        </mxCell>
        <mxCell id="F2zV74ljajzBoqDja7oi-27" style="edgeStyle=orthogonalEdgeStyle;rounded=0;orthogonalLoop=1;jettySize=auto;html=1;endArrow=oval;endFill=1;" edge="1" parent="1" source="F2zV74ljajzBoqDja7oi-17">
          <mxGeometry relative="1" as="geometry">
            <mxPoint x="940" y="280.21" as="targetPoint" />
            <Array as="points">
              <mxPoint x="940" y="100.21000000000001" />
              <mxPoint x="940" y="280.21" />
            </Array>
          </mxGeometry>
        </mxCell>
        <mxCell id="F2zV74ljajzBoqDja7oi-17" value="Rain Gauge Sensor&lt;div&gt;&lt;font style=&quot;font-size: 8px;&quot;&gt;(MK20/2)&lt;/font&gt;&lt;/div&gt;" style="rounded=1;whiteSpace=wrap;html=1;fontFamily=Helvetica;fontSize=11;fontColor=default;labelBackgroundColor=default;" vertex="1" parent="1">
          <mxGeometry x="1000" y="80.21" width="120" height="40" as="geometry" />
        </mxCell>
        <mxCell id="F2zV74ljajzBoqDja7oi-18" value="&lt;span style=&quot;text-wrap: nowrap;&quot;&gt;Flash Memory&lt;/span&gt;&lt;div style=&quot;text-wrap: nowrap;&quot;&gt;&lt;font style=&quot;font-size: 8px;&quot;&gt;(W25Q64FVSSIG)&lt;/font&gt;&lt;/div&gt;" style="rounded=1;whiteSpace=wrap;html=1;fontFamily=Helvetica;fontSize=11;fontColor=default;labelBackgroundColor=default;arcSize=0;" vertex="1" parent="1">
          <mxGeometry x="800" y="360.21" width="80" height="40" as="geometry" />
        </mxCell>
        <mxCell id="F2zV74ljajzBoqDja7oi-21" style="edgeStyle=orthogonalEdgeStyle;rounded=0;orthogonalLoop=1;jettySize=auto;html=1;endArrow=oval;endFill=1;startArrow=classic;startFill=1;strokeWidth=2;strokeColor=#FF0000;" edge="1" parent="1" source="F2zV74ljajzBoqDja7oi-20">
          <mxGeometry relative="1" as="geometry">
            <mxPoint x="439.9999999999998" y="300.21" as="targetPoint" />
          </mxGeometry>
        </mxCell>
        <mxCell id="F2zV74ljajzBoqDja7oi-22" style="edgeStyle=orthogonalEdgeStyle;rounded=0;orthogonalLoop=1;jettySize=auto;html=1;entryX=0.5;entryY=1;entryDx=0;entryDy=0;strokeWidth=2;strokeColor=#FF0000;" edge="1" parent="1" source="F2zV74ljajzBoqDja7oi-20" target="F2zV74ljajzBoqDja7oi-13">
          <mxGeometry relative="1" as="geometry" />
        </mxCell>
        <mxCell id="F2zV74ljajzBoqDja7oi-20" value="BOOST 5V&lt;div&gt;&lt;font style=&quot;font-size: 8px;&quot;&gt;(MT3608)&lt;/font&gt;&lt;/div&gt;" style="rounded=0;whiteSpace=wrap;html=1;" vertex="1" parent="1">
          <mxGeometry x="880" y="420.21" width="80" height="40" as="geometry" />
        </mxCell>
        <mxCell id="F2zV74ljajzBoqDja7oi-31" value="&lt;div&gt;Pressure Sensor&lt;/div&gt;&lt;div&gt;&lt;font style=&quot;font-size: 8px;&quot;&gt;(DPS368)&lt;/font&gt;&lt;/div&gt;" style="rounded=1;whiteSpace=wrap;html=1;fontFamily=Helvetica;fontSize=11;fontColor=default;labelBackgroundColor=default;fillColor=default;" vertex="1" parent="1">
          <mxGeometry x="1000" y="240" width="120" height="40.21" as="geometry" />
        </mxCell>
        <mxCell id="F2zV74ljajzBoqDja7oi-32" value="GPIO" style="text;html=1;align=center;verticalAlign=middle;whiteSpace=wrap;rounded=0;" vertex="1" parent="1">
          <mxGeometry x="820" y="260.21000000000004" width="40" height="20" as="geometry" />
        </mxCell>
        <mxCell id="F2zV74ljajzBoqDja7oi-33" value="I2C" style="text;html=1;align=center;verticalAlign=middle;whiteSpace=wrap;rounded=0;" vertex="1" parent="1">
          <mxGeometry x="820" y="240.21000000000004" width="40" height="20" as="geometry" />
        </mxCell>
        <mxCell id="F2zV74ljajzBoqDja7oi-34" value="GPIO" style="text;html=1;align=center;verticalAlign=middle;whiteSpace=wrap;rounded=0;" vertex="1" parent="1">
          <mxGeometry x="820" y="279.79" width="40" height="20" as="geometry" />
        </mxCell>
        <mxCell id="F2zV74ljajzBoqDja7oi-36" value="EN" style="text;html=1;align=center;verticalAlign=middle;whiteSpace=wrap;rounded=0;" vertex="1" parent="1">
          <mxGeometry x="880" y="380.21" width="40" height="19.79" as="geometry" />
        </mxCell>
      </root>
    </mxGraphModel>
  </diagram>
</mxfile>
